<?xml version="1.0"?>
<svg version="1.1" xmlns="http://www.w3.org/2000/svg" width="220px" height="48px" style=""><path fill="#ffffff" d="M9.4833984375,34.79296875l-0.931640625-3.05859375l-4.6845703125,0l-0.931640625,3.05859375l-2.935546875,0l4.53515625-12.90234375l3.3310546875,0l4.552734375,12.90234375l-2.935546875,0z M7.9013671875,29.44921875q-1.2919921875-4.1572265625-1.45458984375-4.7021484375t-0.23291015625-0.861328125q-0.2900390625,1.125-1.6611328125,5.5634765625l3.3486328125,0z M20.529228515625,24.7822265625q1.740234375,0,2.724609375,1.35791015625t0.984375,3.72216796875q0,2.4345703125-1.01513671875,3.7705078125t-2.76416015625,1.3359375q-1.7314453125,0-2.7158203125-1.2568359375l-0.1845703125,0l-0.4482421875,1.0810546875l-2.0478515625,0l0-13.67578125l2.6806640625,0l0,3.181640625q0,0.6064453125-0.10546875,1.9423828125l0.10546875,0q0.9404296875-1.458984375,2.7861328125-1.458984375z M19.667900390625,26.9267578125q-0.9931640625,0-1.4501953125,0.61083984375t-0.474609375,2.01708984375l0,0.2900390625q0,1.58203125,0.47021484375,2.267578125t1.48974609375,0.685546875q0.826171875,0,1.31396484375-0.76025390625t0.48779296875-2.21044921875t-0.4921875-2.17529296875t-1.3447265625-0.72509765625z M30.80162109375,34.96875q-1.7314453125,0-2.72021484375-1.3447265625t-0.98876953125-3.7265625q0-2.4169921875,1.00634765625-3.76611328125t2.77294921875-1.34912109375q1.8544921875,0,2.830078125,1.44140625l0.087890625,0q-0.2021484375-1.0986328125-0.2021484375-1.9599609375l0-3.146484375l2.689453125,0l0,13.67578125l-2.056640625,0l-0.5185546875-1.2744140625l-0.1142578125,0q-0.9140625,1.4501953125-2.7861328125,1.4501953125z M31.74205078125,32.8330078125q1.0283203125,0,1.50732421875-0.59765625t0.52294921875-2.0302734375l0-0.2900390625q0-1.58203125-0.48779296875-2.267578125t-1.58642578125-0.685546875q-0.896484375,0-1.39306640625,0.76025390625t-0.49658203125,2.21044921875t0.5009765625,2.17529296875t1.4326171875,0.72509765625z M46.558388671875,34.79296875l-0.5185546875-1.3359375l-0.0703125,0q-0.6767578125,0.8525390625-1.39306640625,1.18212890625t-1.86767578125,0.32958984375q-1.4150390625,0-2.22802734375-0.80859375t-0.81298828125-2.302734375q0-1.564453125,1.09423828125-2.30712890625t3.30029296875-0.82177734375l1.705078125-0.052734375l0-0.4306640625q0-1.494140625-1.529296875-1.494140625q-1.177734375,0-2.7685546875,0.7119140625l-0.8876953125-1.810546875q1.6962890625-0.8876953125,3.76171875-0.8876953125q1.9775390625,0,3.0322265625,0.861328125t1.0546875,2.619140625l0,6.5478515625l-1.8720703125,0z M45.767373046875,30.240234375l-1.037109375,0.03515625q-1.1689453125,0.03515625-1.740234375,0.421875t-0.5712890625,1.177734375q0,1.1337890625,1.30078125,1.1337890625q0.931640625,0,1.48974609375-0.5361328125t0.55810546875-1.423828125l0-0.80859375z M55.108125,34.79296875l-2.6806640625,0l0-13.67578125l2.6806640625,0l0,13.67578125z M61.838525390625,34.79296875l-2.6806640625,0l0-13.67578125l2.6806640625,0l0,13.67578125z M72.12849609375,34.79296875l-0.5185546875-1.3359375l-0.0703125,0q-0.6767578125,0.8525390625-1.39306640625,1.18212890625t-1.86767578125,0.32958984375q-1.4150390625,0-2.22802734375-0.80859375t-0.81298828125-2.302734375q0-1.564453125,1.09423828125-2.30712890625t3.30029296875-0.82177734375l1.705078125-0.052734375l0-0.4306640625q0-1.494140625-1.529296875-1.494140625q-1.177734375,0-2.7685546875,0.7119140625l-0.8876953125-1.810546875q1.6962890625-0.8876953125,3.76171875-0.8876953125q1.9775390625,0,3.0322265625,0.861328125t1.0546875,2.619140625l0,6.5478515625l-1.8720703125,0z M71.33748046875,30.240234375l-1.037109375,0.03515625q-1.1689453125,0.03515625-1.740234375,0.421875t-0.5712890625,1.177734375q0,1.1337890625,1.30078125,1.1337890625q0.931640625,0,1.48974609375-0.5361328125t0.55810546875-1.423828125l0-0.80859375z M87.067880859375,34.79296875l-2.6806640625,0l0-5.7392578125q0-2.126953125-1.58203125-2.126953125q-1.125,0-1.6259765625,0.7646484375t-0.5009765625,2.478515625l0,4.623046875l-2.6806640625,0l0-13.67578125l2.6806640625,0l0,2.7861328125q0,0.3251953125-0.0615234375,1.529296875l-0.0615234375,0.791015625l0.140625,0q0.896484375-1.44140625,2.84765625-1.44140625q1.7314453125,0,2.6279296875,0.931640625t0.896484375,2.671875l0,6.4072265625z M102.62926757812,34.79296875l-3.09375-10.0810546875l-0.0791015625,0q0.1669921875,3.076171875,0.1669921875,4.1044921875l0,5.9765625l-2.4345703125,0l0-12.849609375l3.708984375,0l3.041015625,9.826171875l0.052734375,0l3.2255859375-9.826171875l3.708984375,0l0,12.849609375l-2.5400390625,0l0-6.08203125q0-0.4306640625,0.01318359375-0.9931640625t0.11865234375-2.98828125l-0.0791015625,0l-3.3134765625,10.0634765625l-2.49609375,0z M131.84006835937,34.79296875l-2.7158203125,0l0-5.5458984375l-5.0888671875,0l0,5.5458984375l-2.724609375,0l0-12.849609375l2.724609375,0l0,5.0361328125l5.0888671875,0l0-5.0361328125l2.7158203125,0l0,12.849609375z M142.349765625,34.79296875l-0.5185546875-1.3359375l-0.0703125,0q-0.6767578125,0.8525390625-1.39306640625,1.18212890625t-1.86767578125,0.32958984375q-1.4150390625,0-2.22802734375-0.80859375t-0.81298828125-2.302734375q0-1.564453125,1.09423828125-2.30712890625t3.30029296875-0.82177734375l1.705078125-0.052734375l0-0.4306640625q0-1.494140625-1.529296875-1.494140625q-1.177734375,0-2.7685546875,0.7119140625l-0.8876953125-1.810546875q1.6962890625-0.8876953125,3.76171875-0.8876953125q1.9775390625,0,3.0322265625,0.861328125t1.0546875,2.619140625l0,6.5478515625l-1.8720703125,0z M141.55875,30.240234375l-1.037109375,0.03515625q-1.1689453125,0.03515625-1.740234375,0.421875t-0.5712890625,1.177734375q0,1.1337890625,1.30078125,1.1337890625q0.931640625,0,1.48974609375-0.5361328125t0.55810546875-1.423828125l0-0.80859375z M157.01668945312,34.79296875l-2.6806640625,0l0-5.7392578125q0-1.0634765625-0.35595703125-1.59521484375t-1.12060546875-0.53173828125q-1.0283203125,0-1.494140625,0.755859375t-0.4658203125,2.4873046875l0,4.623046875l-2.6806640625,0l0-9.826171875l2.0478515625,0l0.3603515625,1.2568359375l0.1494140625,0q0.3955078125-0.6767578125,1.142578125-1.05908203125t1.7138671875-0.38232421875q2.2060546875,0,2.98828125,1.44140625l0.2373046875,0q0.3955078125-0.685546875,1.16455078125-1.0634765625t1.73583984375-0.3779296875q1.669921875,0,2.52685546875,0.85693359375t0.85693359375,2.74658203125l0,6.4072265625l-2.689453125,0l0-5.7392578125q0-1.0634765625-0.35595703125-1.59521484375t-1.12060546875-0.53173828125q-0.984375,0-1.47216796875,0.703125t-0.48779296875,2.232421875l0,4.9306640625z M173.37111328125,34.79296875l-0.5185546875-1.3359375l-0.0703125,0q-0.6767578125,0.8525390625-1.39306640625,1.18212890625t-1.86767578125,0.32958984375q-1.4150390625,0-2.22802734375-0.80859375t-0.81298828125-2.302734375q0-1.564453125,1.09423828125-2.30712890625t3.30029296875-0.82177734375l1.705078125-0.052734375l0-0.4306640625q0-1.494140625-1.529296875-1.494140625q-1.177734375,0-2.7685546875,0.7119140625l-0.8876953125-1.810546875q1.6962890625-0.8876953125,3.76171875-0.8876953125q1.9775390625,0,3.0322265625,0.861328125t1.0546875,2.619140625l0,6.5478515625l-1.8720703125,0z M172.58009765625,30.240234375l-1.037109375,0.03515625q-1.1689453125,0.03515625-1.740234375,0.421875t-0.5712890625,1.177734375q0,1.1337890625,1.30078125,1.1337890625q0.931640625,0,1.48974609375-0.5361328125t0.55810546875-1.423828125l0-0.80859375z M182.35151367187,34.96875q-1.7314453125,0-2.72021484375-1.3447265625t-0.98876953125-3.7265625q0-2.4169921875,1.00634765625-3.76611328125t2.77294921875-1.34912109375q1.8544921875,0,2.830078125,1.44140625l0.087890625,0q-0.2021484375-1.0986328125-0.2021484375-1.9599609375l0-3.146484375l2.689453125,0l0,13.67578125l-2.056640625,0l-0.5185546875-1.2744140625l-0.1142578125,0q-0.9140625,1.4501953125-2.7861328125,1.4501953125z M183.29194335937,32.8330078125q1.0283203125,0,1.50732421875-0.59765625t0.52294921875-2.0302734375l0-0.2900390625q0-1.58203125-0.48779296875-2.267578125t-1.58642578125-0.685546875q-0.896484375,0-1.39306640625,0.76025390625t-0.49658203125,2.21044921875t0.5009765625,2.17529296875t1.4326171875,0.72509765625z M196.0076953125,32.8330078125q0.703125,0,1.6875-0.3076171875l0,1.9951171875q-1.001953125,0.4482421875-2.4609375,0.4482421875q-1.6083984375,0-2.34228515625-0.81298828125t-0.73388671875-2.43896484375l0-4.7373046875l-1.283203125,0l0-1.1337890625l1.4765625-0.896484375l0.7734375-2.07421875l1.7138671875,0l0,2.091796875l2.7509765625,0l0,2.0126953125l-2.7509765625,0l0,4.7373046875q0,0.5712890625,0.32080078125,0.84375t0.84814453125,0.2724609375z M203.05450195312,29.8623046875q0,1.458984375,0.47900390625,2.2060546875t1.56005859375,0.7470703125q1.072265625,0,1.54248046875-0.74267578125t0.47021484375-2.21044921875q0-1.458984375-0.474609375-2.1884765625t-1.5556640625-0.7294921875q-1.072265625,0-1.546875,0.72509765625t-0.474609375,2.19287109375z M209.84844726562,29.8623046875q0,2.3994140625-1.265625,3.7529296875t-3.5244140625,1.353515625q-1.4150390625,0-2.49609375-0.61962890625t-1.6611328125-1.77978515625t-0.580078125-2.70703125q0-2.408203125,1.2568359375-3.744140625t3.533203125-1.3359375q1.4150390625,0,2.49609375,0.615234375t1.6611328125,1.7666015625t0.580078125,2.6982421875z"/><path fill="#" d=""/></svg>
